<svg xmlns="http://www.w3.org/2000/svg" viewBox="0 0 128 128"><defs><style>.cls-1{isolation:isolate;}.cls-2{mix-blend-mode:multiply;}.cls-3{fill:#a694d7;}.cls-4{fill:#cab5ea;}.cls-5,.cls-7{fill:#8080c1;}.cls-6{fill:none;}.cls-6,.cls-8{stroke:#302a27;}.cls-12,.cls-6,.cls-7,.cls-8{stroke-linecap:round;stroke-linejoin:round;stroke-width:2px;}.cls-7{stroke:#8080c1;}.cls-12,.cls-8,.cls-9{fill:#fff;}.cls-10{fill:#ff9166;}.cls-11{fill:#302a27;}.cls-12{stroke:#fff;}</style></defs><title>monster-14</title><g class="cls-1"><g id="icons" class="cls-2"><path class="cls-3" d="M106.5,66.81c5.24,30.14-1.94,41.94-42.5,42.19-40.56-.25-47.74-12.06-42.5-42.19C26.68,37.68,31.38,19,64,19S101.32,37.68,106.5,66.81Z"/><path class="cls-4" d="M73.36,19.61l-.14.09a11.18,11.18,0,0,1-5.49.88,42.68,42.68,0,0,0-12,1.18A17,17,0,0,0,46,28.41c-1.43,2.19-2.23,4.84-4.18,6.57-2.18,1.92-5.31,2.27-7.82,3.71a10.21,10.21,0,0,0-5,8.32c-.19,5.13,3.53,10.09,2.26,15.06-.56,2.18-2,4-3,6-.9,1.87-1.44,4-2.79,5.53a13.3,13.3,0,0,1-3,2.37c-.73.46-1.48.87-2.19,1.3a102.41,102.41,0,0,1,1.34-10.5C26.68,37.68,31.38,19,64,19c1.35,0,2.66,0,3.92.1C69.84,19.2,71.65,19.37,73.36,19.61Z"/><path class="cls-5" d="M64,109a131.16,131.16,0,0,1-17.65-1.13,9.94,9.94,0,0,1,3.82-2.77c3.07-1.2,6.49-1,9.76-.63s6.56,1,9.84.72c6.58-.65,12.31-5,18.86-5.91a33.26,33.26,0,0,0,4.89-.68,8.83,8.83,0,0,0,5.89-5.92c.45-1.59.49-3.4,1.58-4.64.71-.8,1.77-1.24,2.48-2,1.4-1.58,1.06-4,.7-6.08a112.78,112.78,0,0,1-1.64-19c0-2.43.17-5.08,1.46-7,.89,4,1.7,8.35,2.51,12.92C111.74,96.94,104.56,108.75,64,109Z"/><path class="cls-6" d="M106.5,66.81c5.24,30.14-1.94,41.94-42.5,42.19-40.56-.25-47.74-12.06-42.5-42.19C26.68,37.68,31.38,19,64,19S101.32,37.68,106.5,66.81Z"/><circle class="cls-7" cx="78" cy="58" r="12"/><path class="cls-7" d="M62,58a12,12,0,0,1-5.37,10,51.35,51.35,0,0,0-15.08-1.47,12,12,0,0,1,.08-17.13A51.11,51.11,0,0,0,60,51.29,11.88,11.88,0,0,1,62,58Z"/><circle class="cls-8" cx="78" cy="54" r="12"/><path class="cls-9" d="M62,54a12,12,0,0,1-5.37,10,51.35,51.35,0,0,0-15.08-1.47,12,12,0,0,1,.08-17.13A51.11,51.11,0,0,0,60,47.29,11.88,11.88,0,0,1,62,54Z"/><circle class="cls-10" cx="50" cy="57" r="6"/><circle class="cls-11" cx="50" cy="57" r="3"/><circle class="cls-9" cx="48" cy="55" r="1"/><path class="cls-5" d="M55.65,94c1,.17,2.07.34,3.12.43s2.1.19,3.15.22a43.82,43.82,0,0,0,6.27-.25,36,36,0,0,0,6.14-1.19c.5-.15,1-.27,1.51-.43l1.47-.54c1-.31,1.93-.83,2.93-1.19l.05,0a.5.5,0,0,1,.45.88,24.56,24.56,0,0,1-5.88,3,28.18,28.18,0,0,1-3.19.94c-1.09.19-2.18.44-3.28.52a30.3,30.3,0,0,1-6.61,0A26.52,26.52,0,0,1,55.35,95a.5.5,0,0,1,.26-1Z"/><path class="cls-11" d="M82.5,83.09A22.71,22.71,0,0,1,74,88.3a27.67,27.67,0,0,1-5,1.3,31.2,31.2,0,0,1-10,0,27.67,27.67,0,0,1-5-1.3c-.47-.17-.93-.34-1.37-.54a23,23,0,0,1-5.31-3.07,18.62,18.62,0,0,1-1.81-1.6A16.29,16.29,0,0,1,43,80C63,80,65.92,91,85,80,86.08,79.36,83.46,82.14,82.5,83.09Z"/><path class="cls-6" d="M62,54a12,12,0,0,1-5.37,10,51.35,51.35,0,0,0-15.08-1.47,12,12,0,0,1,.08-17.13A51.11,51.11,0,0,0,60,47.29,11.88,11.88,0,0,1,62,54Z"/><circle class="cls-10" cx="78" cy="57" r="6"/><circle class="cls-11" cx="78" cy="57" r="3"/><circle class="cls-9" cx="76" cy="55" r="1"/><path class="cls-5" d="M43.62,40c2.65.22,5.28.49,7.91.65,1.31.09,2.63.15,3.94.21l4,.13h0a.5.5,0,0,1,.11,1,20.45,20.45,0,0,1-4.06.67,28.09,28.09,0,0,1-4.11,0,28.57,28.57,0,0,1-8-1.67.5.5,0,0,1,.22-1Z"/><path class="cls-5" d="M69.22,38.08a11.47,11.47,0,0,1,3.27-2,14.78,14.78,0,0,1,3.67-1,14.46,14.46,0,0,1,7.46.86.51.51,0,0,1-.22,1h0c-1.2-.06-2.35-.17-3.51-.13a24.09,24.09,0,0,0-3.43.27,26.82,26.82,0,0,0-3.37.71c-1.11.3-2.23.68-3.3,1.08l0,0a.5.5,0,0,1-.51-.85Z"/><path class="cls-12" d="M54,85l-1.38,2.76a23,23,0,0,1-5.31-3.07L49,83Z"/><path class="cls-6" d="M85,80c1.12-.64-1.5,2.14-2.46,3.09A22.71,22.71,0,0,1,74,88.3a27.67,27.67,0,0,1-5,1.3,31.2,31.2,0,0,1-10,0,27.67,27.67,0,0,1-5-1.3,22.71,22.71,0,0,1-8.49-5.21A16.29,16.29,0,0,1,43,80C63,80,65.92,91,85,80Z"/></g></g></svg>